<?xml version="1.0" standalone="no"?><!DOCTYPE svg PUBLIC "-//W3C//DTD SVG 1.1//EN" "http://www.w3.org/Graphics/SVG/1.1/DTD/svg11.dtd"><svg t="1583755788458" class="icon" viewBox="0 0 1024 1024" version="1.1" xmlns="http://www.w3.org/2000/svg" p-id="7333" width="32" height="32" xmlns:xlink="http://www.w3.org/1999/xlink"><defs><style type="text/css"></style></defs><path d="M868.352 568.32q32.768 0 53.248 19.456t20.48 52.224l0 221.184q0 35.84-19.968 54.784t-52.736 18.944l-706.56 0q-33.792 0-56.832-22.528t-23.04-55.296l0-212.992q0-35.84 19.968-55.808t54.784-19.968l710.656 0zM868.352 90.112q32.768 0 53.248 18.944t20.48 52.736l0 220.16q0 35.84-19.968 54.784t-52.736 18.944l-706.56 0q-33.792 0-56.832-22.528t-23.04-55.296l0-211.968q0-35.84 19.968-55.808t54.784-19.968l710.656 0z" p-id="7334" fill="#dbdbdb"></path></svg>